<?xml version="1.0" encoding="UTF-8"?>
<!DOCTYPE svg PUBLIC "-//W3C//DTD SVG 1.1//EN" "http://www.w3.org/Graphics/SVG/1.1/DTD/svg11.dtd">
<svg xmlns="http://www.w3.org/2000/svg" version="1.1" width="320px" height="320px" style="shape-rendering:geometricPrecision; text-rendering:geometricPrecision; image-rendering:optimizeQuality; fill-rule:evenodd; clip-rule:evenodd" xmlns:xlink="http://www.w3.org/1999/xlink">
<g><path style="opacity:0.997" fill="#040404" d="M 141.5,-0.5 C 153.167,-0.5 164.833,-0.5 176.5,-0.5C 196.058,1.90564 214.725,7.5723 232.5,16.5C 232.821,18.0481 233.821,18.7148 235.5,18.5C 237.483,19.4706 239.483,20.4706 241.5,21.5C 241.821,23.0481 242.821,23.7148 244.5,23.5C 254.022,29.0179 262.689,35.6846 270.5,43.5C 270.5,44.8333 271.167,45.5 272.5,45.5C 276.845,49.847 280.845,54.5137 284.5,59.5C 284.738,61.4044 285.738,62.7377 287.5,63.5C 289.262,64.2623 290.262,65.5956 290.5,67.5C 290.427,69.0269 291.094,70.0269 292.5,70.5C 292.427,72.0269 293.094,73.0269 294.5,73.5C 305.045,88.938 312.212,105.938 316,124.5C 317.39,130.938 318.557,137.272 319.5,143.5C 319.5,154.167 319.5,164.833 319.5,175.5C 311.092,235.474 279.758,278.974 225.5,306C 208.996,312.874 191.996,317.374 174.5,319.5C 164.5,319.5 154.5,319.5 144.5,319.5C 136.03,318.588 127.697,316.921 119.5,314.5C 117.485,313.076 115.152,312.41 112.5,312.5C 71.655,299.65 40.655,274.65 19.5,237.5C 19.7148,235.821 19.0481,234.821 17.5,234.5C 7.41755,215.264 1.41755,194.931 -0.5,173.5C -0.5,163.833 -0.5,154.167 -0.5,144.5C 0.412074,136.03 2.07874,127.697 4.5,119.5C 5.92381,117.485 6.59047,115.152 6.5,112.5C 9.67709,99.4844 15.0104,87.4844 22.5,76.5C 23.9063,76.0269 24.573,75.0269 24.5,73.5C 25.9063,73.0269 26.573,72.0269 26.5,70.5C 27.9063,70.0269 28.573,69.0269 28.5,67.5C 37.1135,54.8864 47.4469,43.8864 59.5,34.5C 61.4044,34.2624 62.7377,33.2624 63.5,31.5C 63.5,30.8333 63.8333,30.5 64.5,30.5C 66.0269,30.573 67.0269,29.9063 67.5,28.5C 67.9731,27.0937 68.9731,26.427 70.5,26.5C 72.0269,26.573 73.0269,25.9063 73.5,24.5C 74.8993,23.1103 76.5659,22.1103 78.5,21.5C 80.0269,21.573 81.0269,20.9063 81.5,19.5C 91.0368,13.4273 101.37,9.09399 112.5,6.5C 115.152,6.59047 117.485,5.92381 119.5,4.5C 126.678,2.06495 134.011,0.398285 141.5,-0.5 Z"/></g>
<g><path style="opacity:0.725" fill="#575757" d="M 119.5,4.5 C 117.485,5.92381 115.152,6.59047 112.5,6.5C 114.515,5.07619 116.848,4.40953 119.5,4.5 Z"/></g>
<g><path style="opacity:0.604" fill="#6b6b6b" d="M 232.5,16.5 C 233.71,16.9321 234.71,17.5987 235.5,18.5C 233.821,18.7148 232.821,18.0481 232.5,16.5 Z"/></g>
<g><path style="opacity:0.467" fill="#737373" d="M 81.5,19.5 C 81.0269,20.9063 80.0269,21.573 78.5,21.5C 78.9731,20.0937 79.9731,19.427 81.5,19.5 Z"/></g>
<g><path style="opacity:0.51" fill="#757575" d="M 241.5,21.5 C 242.71,21.9321 243.71,22.5987 244.5,23.5C 242.821,23.7148 241.821,23.0481 241.5,21.5 Z"/></g>
<g><path style="opacity:0.482" fill="#6d6d6d" d="M 73.5,24.5 C 73.0269,25.9063 72.0269,26.573 70.5,26.5C 70.9731,25.0937 71.9731,24.427 73.5,24.5 Z"/></g>
<g><path style="opacity:0.384" fill="#7a7a7a" d="M 67.5,28.5 C 67.0269,29.9063 66.0269,30.573 64.5,30.5C 64.9731,29.0937 65.9731,28.427 67.5,28.5 Z"/></g>
<g><path style="opacity:0.392" fill="#6e6e6e" d="M 63.5,31.5 C 62.7377,33.2624 61.4044,34.2624 59.5,34.5C 60.2623,32.7376 61.5956,31.7376 63.5,31.5 Z"/></g>
<g><path style="opacity:0.216" fill="#9d9d9d" d="M 270.5,43.5 C 271.5,43.8333 272.167,44.5 272.5,45.5C 271.167,45.5 270.5,44.8333 270.5,43.5 Z"/></g>
<g><path style="opacity:1" fill="#9b9b9b" d="M 106.5,59.5 C 105.417,59.4606 104.417,59.1272 103.5,58.5C 102.148,59.5244 100.815,60.5244 99.5,61.5C 100.128,58.0451 102.128,56.8785 105.5,58C 106.056,58.3826 106.389,58.8826 106.5,59.5 Z"/></g>
<g><path style="opacity:0.537" fill="#696969" d="M 284.5,59.5 C 286.262,60.2623 287.262,61.5956 287.5,63.5C 285.738,62.7377 284.738,61.4044 284.5,59.5 Z"/></g>
<g><path style="opacity:1" fill="#f4f4f4" d="M 127.5,67.5 C 128.167,67.5 128.833,67.5 129.5,67.5C 132.287,68.4767 135.287,68.81 138.5,68.5C 143.844,70.6329 149.511,71.6329 155.5,71.5C 157.857,71.3367 160.19,71.5034 162.5,72C 163.056,72.3826 163.389,72.8826 163.5,73.5C 163.795,75.7354 163.461,77.7354 162.5,79.5C 160.954,80.6358 159.121,81.3025 157,81.5C 150.24,80.0824 143.407,79.4157 136.5,79.5C 128.767,78.489 121.1,77.1556 113.5,75.5C 112.833,75.5 112.167,75.5 111.5,75.5C 108.776,73.0617 105.776,72.895 102.5,75C 101.267,76.6667 99.9335,78.1667 98.5,79.5C 98.2942,77.4508 97.4609,77.1175 96,78.5C 95.5,78 95,77.5 94.5,77C 95.1172,74.2423 95.2839,71.409 95,68.5C 98.0673,66.2582 101.401,64.5915 105,63.5C 106.834,64.8357 108.834,65.8357 111,66.5C 112.894,66.4606 113.894,65.7939 114,64.5C 118.493,65.6108 122.993,66.6108 127.5,67.5 Z"/></g>
<g><path style="opacity:1" fill="#373737" d="M 129.5,67.5 C 134.844,67.334 140.177,67.5006 145.5,68C 148.104,68.3903 150.438,69.2237 152.5,70.5C 147.883,69.5127 143.216,68.846 138.5,68.5C 135.287,68.81 132.287,68.4767 129.5,67.5 Z"/></g>
<g><path style="opacity:0.141" fill="#848484" d="M 28.5,67.5 C 28.573,69.0269 27.9063,70.0269 26.5,70.5C 26.427,68.9731 27.0937,67.9731 28.5,67.5 Z"/></g>
<g><path style="opacity:1" fill="#a3a3a3" d="M 138.5,68.5 C 143.216,68.846 147.883,69.5127 152.5,70.5C 153.791,70.2627 154.791,70.596 155.5,71.5C 149.511,71.6329 143.844,70.6329 138.5,68.5 Z"/></g>
<g><path style="opacity:1" fill="#a5a5a5" d="M 205.5,64.5 C 205.063,66.0744 204.063,67.2411 202.5,68C 200.073,69.5914 197.407,70.4248 194.5,70.5C 197.646,67.7563 201.313,65.7563 205.5,64.5 Z"/></g>
<g><path style="opacity:1" fill="#d8d8d8" d="M 232.5,83.5 C 231.18,82.0582 229.514,81.3915 227.5,81.5C 227.762,82.9778 227.429,84.3112 226.5,85.5C 223.961,84.1448 223.961,82.6448 226.5,81C 224.691,77.8756 222.524,75.0422 220,72.5C 219.167,73.3333 218.333,74.1667 217.5,75C 219.004,76.4907 219.837,78.324 220,80.5C 220.333,80.1667 220.667,79.8333 221,79.5C 222.09,82.6919 223.257,85.8586 224.5,89C 224.22,90.395 223.553,91.5617 222.5,92.5C 218.053,93.8896 214.053,96.0562 210.5,99C 211.337,100.011 211.67,101.178 211.5,102.5C 213.806,102.007 216.139,101.674 218.5,101.5C 218.295,107.878 218.628,114.211 219.5,120.5C 218.442,119.4 217.608,118.066 217,116.5C 216.501,112.179 216.334,107.846 216.5,103.5C 215.209,103.263 214.209,103.596 213.5,104.5C 211.708,104.366 210.042,104.699 208.5,105.5C 208.286,103.856 208.62,102.356 209.5,101C 208.207,100.51 206.873,100.343 205.5,100.5C 205.833,99.8333 206.167,99.1667 206.5,98.5C 208.967,98.2451 210.967,97.2451 212.5,95.5C 215.551,93.6477 218.884,92.3143 222.5,91.5C 222.702,89.0108 222.202,86.6775 221,84.5C 218.636,81.3098 216.136,78.3098 213.5,75.5C 213.5,75.1667 213.5,74.8333 213.5,74.5C 210.375,73.8998 210.042,72.7331 212.5,71C 211.833,70.6667 211.167,70.3333 210.5,70C 212.462,70.1407 214.296,69.974 216,69.5C 217.261,69.7591 218.261,70.4258 219,71.5C 219.75,70.8742 220.584,70.3742 221.5,70C 219.783,68.4412 217.783,67.6079 215.5,67.5C 217.008,64.8599 216.674,62.5266 214.5,60.5C 211.843,62.6077 208.843,63.941 205.5,64.5C 208.185,60.6369 211.852,58.8035 216.5,59C 222.725,66.6258 228.058,74.7925 232.5,83.5 Z"/></g>
<g><path style="opacity:0.149" fill="#808080" d="M 290.5,67.5 C 291.906,67.9731 292.573,68.9731 292.5,70.5C 291.094,70.0269 290.427,69.0269 290.5,67.5 Z"/></g>
<g><path style="opacity:1" fill="#dbdbdb" d="M 106.5,59.5 C 113.467,62.4928 120.467,65.1595 127.5,67.5C 122.993,66.6108 118.493,65.6108 114,64.5C 113.894,65.7939 112.894,66.4606 111,66.5C 108.834,65.8357 106.834,64.8357 105,63.5C 101.401,64.5915 98.0673,66.2582 95,68.5C 95.2839,71.409 95.1172,74.2423 94.5,77C 95,77.5 95.5,78 96,78.5C 97.4609,77.1175 98.2942,77.4508 98.5,79.5C 97.8902,80.391 97.5569,81.391 97.5,82.5C 94.4828,84.6154 93.8161,87.282 95.5,90.5C 96.925,91.922 97.925,93.5887 98.5,95.5C 92.3154,91.2948 90.1488,85.9615 92,79.5C 94.4031,82.3655 95.2364,82.1988 94.5,79C 93.3914,78.3623 92.2247,77.8623 91,77.5C 88.33,79.436 86.1634,81.7694 84.5,84.5C 84.5,83.8333 84.5,83.1667 84.5,82.5C 88.3432,74.6595 93.3432,67.6595 99.5,61.5C 100.815,60.5244 102.148,59.5244 103.5,58.5C 104.417,59.1272 105.417,59.4606 106.5,59.5 Z"/></g>
<g><path style="opacity:0.149" fill="#7d7d7d" d="M 26.5,70.5 C 26.573,72.0269 25.9063,73.0269 24.5,73.5C 24.427,71.9731 25.0937,70.9731 26.5,70.5 Z"/></g>
<g><path style="opacity:0.149" fill="#7a7a7a" d="M 292.5,70.5 C 293.906,70.9731 294.573,71.9731 294.5,73.5C 293.094,73.0269 292.427,72.0269 292.5,70.5 Z"/></g>
<g><path style="opacity:0.122" fill="#949494" d="M 24.5,73.5 C 24.573,75.0269 23.9063,76.0269 22.5,76.5C 22.427,74.9731 23.0937,73.9731 24.5,73.5 Z"/></g>
<g><path style="opacity:1" fill="#101010" d="M 111.5,75.5 C 112.167,75.5 112.833,75.5 113.5,75.5C 119.728,78.4182 126.395,80.0848 133.5,80.5C 139.301,81.6818 145.301,82.3484 151.5,82.5C 152.833,82.5 154.167,82.5 155.5,82.5C 156.952,83.3019 158.618,83.8019 160.5,84C 154.833,84.3333 149.167,84.6667 143.5,85C 142.667,85.8333 141.833,86.6667 141,87.5C 140.501,93.1569 140.334,98.8236 140.5,104.5C 139.335,112.823 138.335,121.157 137.5,129.5C 137.5,129.833 137.5,130.167 137.5,130.5C 136.532,132.607 136.198,134.941 136.5,137.5C 144.507,137.666 152.507,137.5 160.5,137C 161.416,136.722 162.082,136.222 162.5,135.5C 164.196,135.685 165.529,136.519 166.5,138C 169.696,138.805 172.696,138.638 175.5,137.5C 176.325,133.353 176.825,129.019 177,124.5C 177.852,125.571 178.685,126.571 179.5,127.5C 179.899,131.116 180.899,134.45 182.5,137.5C 185.287,138.477 188.287,138.81 191.5,138.5C 191.663,136.143 191.497,133.81 191,131.5C 190.617,130.944 190.117,130.611 189.5,130.5C 188.488,126.485 187.488,122.485 186.5,118.5C 186.351,117.448 186.517,116.448 187,115.5C 190.626,112.346 192.459,108.346 192.5,103.5C 193.326,98.6835 193.826,93.6835 194,88.5C 195.319,99.4562 195.819,110.456 195.5,121.5C 195.5,121.833 195.5,122.167 195.5,122.5C 194.514,126.97 194.181,131.637 194.5,136.5C 191.05,138.971 187.05,140.137 182.5,140C 192.675,140.17 202.675,140.67 212.5,141.5C 197.833,141.5 183.167,141.5 168.5,141.5C 144.988,140.556 121.321,139.556 97.5,138.5C 97.7148,140.179 97.0481,141.179 95.5,141.5C 94.5554,138.013 92.2221,136.68 88.5,137.5C 88.5,136.833 88.5,136.167 88.5,135.5C 88.5,135.167 88.5,134.833 88.5,134.5C 92.1727,131.494 95.5061,128.161 98.5,124.5C 99.7853,121.979 100.452,119.313 100.5,116.5C 101.8,114.777 102.467,112.61 102.5,110C 102.922,104.828 101.588,100.328 98.5,96.5C 98.5,96.1667 98.5,95.8333 98.5,95.5C 97.925,93.5887 96.925,91.922 95.5,90.5C 95.2872,87.5491 95.9539,84.8825 97.5,82.5C 100.002,80.8304 102.002,78.6637 103.5,76C 106.146,75.5026 108.813,75.3359 111.5,75.5 Z"/></g>
<g><path style="opacity:1" fill="#747474" d="M 113.5,75.5 C 121.1,77.1556 128.767,78.489 136.5,79.5C 136.5,79.8333 136.5,80.1667 136.5,80.5C 135.5,80.5 134.5,80.5 133.5,80.5C 126.395,80.0848 119.728,78.4182 113.5,75.5 Z"/></g>
<g><path style="opacity:1" fill="#f3f3f3" d="M 98.5,95.5 C 98.5,95.8333 98.5,96.1667 98.5,96.5C 100.205,103.014 100.871,109.681 100.5,116.5C 100.452,119.313 99.7853,121.979 98.5,124.5C 95.5061,128.161 92.1727,131.494 88.5,134.5C 86.8333,134.5 85.1667,134.5 83.5,134.5C 83.9628,131.779 84.6295,129.112 85.5,126.5C 86.3764,126.631 87.0431,126.298 87.5,125.5C 91.1988,117.598 92.3655,109.265 91,100.5C 90.7216,99.5842 90.2216,98.9175 89.5,98.5C 89.2624,96.5956 88.2624,95.2623 86.5,94.5C 86.3146,92.8042 85.4813,91.4709 84,90.5C 83.2109,88.2884 83.3775,86.2884 84.5,84.5C 86.1634,81.7694 88.33,79.436 91,77.5C 92.2247,77.8623 93.3914,78.3623 94.5,79C 95.2364,82.1988 94.4031,82.3655 92,79.5C 90.1488,85.9615 92.3154,91.2948 98.5,95.5 Z"/></g>
<g><path style="opacity:1" fill="#5f5f5f" d="M 111.5,75.5 C 108.813,75.3359 106.146,75.5026 103.5,76C 102.002,78.6637 100.002,80.8304 97.5,82.5C 97.5569,81.391 97.8902,80.391 98.5,79.5C 99.9335,78.1667 101.267,76.6667 102.5,75C 105.776,72.895 108.776,73.0617 111.5,75.5 Z"/></g>
<g><path style="opacity:1" fill="#828282" d="M 115.5,81.5 C 110.147,81.5099 106.813,84.1766 105.5,89.5C 106.193,90.5178 106.859,91.5178 107.5,92.5C 105.278,92.4413 104.278,91.2747 104.5,89C 105.826,82.444 109.493,79.944 115.5,81.5 Z"/></g>
<g><path style="opacity:1" fill="#414141" d="M 133.5,80.5 C 134.5,80.5 135.5,80.5 136.5,80.5C 141.731,80.4443 146.731,81.111 151.5,82.5C 145.301,82.3484 139.301,81.6818 133.5,80.5 Z"/></g>
<g><path style="opacity:1" fill="#acacac" d="M 136.5,80.5 C 136.5,80.1667 136.5,79.8333 136.5,79.5C 143.407,79.4157 150.24,80.0824 157,81.5C 159.121,81.3025 160.954,80.6358 162.5,79.5C 162.5,80.5 162.5,81.5 162.5,82.5C 160.167,82.5 157.833,82.5 155.5,82.5C 154.167,82.5 152.833,82.5 151.5,82.5C 146.731,81.111 141.731,80.4443 136.5,80.5 Z"/></g>
<g><path style="opacity:1" fill="#f6f6f6" d="M 115.5,81.5 C 115.944,84.2222 117.277,86.3888 119.5,88C 120.549,88.4922 121.549,88.3256 122.5,87.5C 125.569,88.4167 128.236,89.9167 130.5,92C 126.5,93 126.5,94 130.5,95C 128.812,97.8245 127.979,100.991 128,104.5C 124.263,105.295 122.43,107.628 122.5,111.5C 120.158,111.496 118.158,110.663 116.5,109C 116.357,106.565 116.69,104.065 117.5,101.5C 117.904,100.244 118.571,99.0769 119.5,98C 119.43,97.2352 119.097,96.7352 118.5,96.5C 115.947,94.4163 112.947,93.083 109.5,92.5C 108.833,92.5 108.167,92.5 107.5,92.5C 106.859,91.5178 106.193,90.5178 105.5,89.5C 106.813,84.1766 110.147,81.5099 115.5,81.5 Z"/></g>
<g><path style="opacity:1" fill="#383838" d="M 163.5,73.5 C 163.565,79.0103 163.898,84.6769 164.5,90.5C 164.333,91.8333 164.167,93.1667 164,94.5C 163.329,95.2524 162.496,95.5858 161.5,95.5C 161.5,95.1667 161.5,94.8333 161.5,94.5C 164.145,91.7829 164.145,88.9495 161.5,86C 155.833,85.3333 150.167,85.3333 144.5,86C 143.667,86.8333 142.833,87.6667 142,88.5C 141.501,93.8229 141.334,99.1563 141.5,104.5C 141.167,104.5 140.833,104.5 140.5,104.5C 140.334,98.8236 140.501,93.1569 141,87.5C 141.833,86.6667 142.667,85.8333 143.5,85C 149.167,84.6667 154.833,84.3333 160.5,84C 158.618,83.8019 156.952,83.3019 155.5,82.5C 157.833,82.5 160.167,82.5 162.5,82.5C 162.5,81.5 162.5,80.5 162.5,79.5C 163.461,77.7354 163.795,75.7354 163.5,73.5 Z"/></g>
<g><path style="opacity:1" fill="#5e5e5e" d="M 192.5,70.5 C 190.239,74.3214 190.739,77.988 194,81.5C 194.696,84.4781 195.196,87.4781 195.5,90.5C 196.4,100.802 196.733,111.135 196.5,121.5C 196.167,121.5 195.833,121.5 195.5,121.5C 195.819,110.456 195.319,99.4562 194,88.5C 193.826,93.6835 193.326,98.6835 192.5,103.5C 192.824,96.6457 192.491,89.979 191.5,83.5C 190.5,80.8333 189.5,78.1667 188.5,75.5C 189.29,74.3915 189.79,73.0581 190,71.5C 190.671,70.7476 191.504,70.4142 192.5,70.5 Z"/></g>
<g><path style="opacity:1" fill="#787878" d="M 172.5,72.5 C 172.217,73.2891 171.717,73.9558 171,74.5C 170.828,81.346 170.328,88.0126 169.5,94.5C 169.334,87.4921 169.5,80.4921 170,73.5C 170.671,72.7476 171.504,72.4142 172.5,72.5 Z"/></g>
<g><path style="opacity:1" fill="#797979" d="M 97.5,82.5 C 95.9539,84.8825 95.2872,87.5491 95.5,90.5C 93.8161,87.282 94.4828,84.6154 97.5,82.5 Z"/></g>
<g><path style="opacity:1" fill="#6e6e6e" d="M 232.5,83.5 C 236.169,85.438 237.336,88.438 236,92.5C 235.184,93.8228 234.017,94.4894 232.5,94.5C 233.908,93.0892 234.908,91.4225 235.5,89.5C 234.481,87.4893 233.481,85.4893 232.5,83.5 Z"/></g>
<g><path style="opacity:1" fill="#676767" d="M 84.5,82.5 C 84.5,83.1667 84.5,83.8333 84.5,84.5C 83.3775,86.2884 83.2109,88.2884 84,90.5C 85.4813,91.4709 86.3146,92.8042 86.5,94.5C 80.9752,91.1091 80.3085,87.1091 84.5,82.5 Z"/></g>
<g><path style="opacity:1" fill="#5b5b5b" d="M 109.5,92.5 C 112.947,93.083 115.947,94.4163 118.5,96.5C 115.057,95.9408 112.057,94.6074 109.5,92.5 Z"/></g>
<g><path style="opacity:1" fill="#f1f1f1" d="M 213.5,74.5 C 209.74,73.7736 207.073,75.1069 205.5,78.5C 201.809,79.3362 200.809,81.3362 202.5,84.5C 202.5,85.8333 202.5,87.1667 202.5,88.5C 202.335,92.1817 202.501,95.8484 203,99.5C 203.671,100.252 204.504,100.586 205.5,100.5C 206.873,100.343 208.207,100.51 209.5,101C 208.62,102.356 208.286,103.856 208.5,105.5C 206.973,105.427 205.973,106.094 205.5,107.5C 203.544,113.412 202.877,119.745 203.5,126.5C 206.059,126.802 208.393,126.468 210.5,125.5C 213.079,124.772 215.746,124.272 218.5,124C 219.337,122.989 219.67,121.822 219.5,120.5C 218.628,114.211 218.295,107.878 218.5,101.5C 216.139,101.674 213.806,102.007 211.5,102.5C 211.67,101.178 211.337,100.011 210.5,99C 214.053,96.0562 218.053,93.8896 222.5,92.5C 223.553,91.5617 224.22,90.395 224.5,89C 223.257,85.8586 222.09,82.6919 221,79.5C 220.667,79.8333 220.333,80.1667 220,80.5C 219.837,78.324 219.004,76.4907 217.5,75C 218.333,74.1667 219.167,73.3333 220,72.5C 222.524,75.0422 224.691,77.8756 226.5,81C 223.961,82.6448 223.961,84.1448 226.5,85.5C 227.429,84.3112 227.762,82.9778 227.5,81.5C 229.514,81.3915 231.18,82.0582 232.5,83.5C 233.481,85.4893 234.481,87.4893 235.5,89.5C 234.908,91.4225 233.908,93.0892 232.5,94.5C 231.167,94.5 230.5,95.1667 230.5,96.5C 228.025,97.6874 227.025,99.6874 227.5,102.5C 224.795,108.761 224.962,115.095 228,121.5C 228.383,122.056 228.883,122.389 229.5,122.5C 231.5,125.5 233.5,128.5 235.5,131.5C 235.5,131.833 235.5,132.167 235.5,132.5C 233.833,132.5 232.167,132.5 230.5,132.5C 223.889,132.547 217.556,133.547 211.5,135.5C 211.167,135.5 210.833,135.5 210.5,135.5C 205.933,136.967 201.267,137.467 196.5,137C 195.531,132.263 195.197,127.43 195.5,122.5C 195.5,122.167 195.5,121.833 195.5,121.5C 195.833,121.5 196.167,121.5 196.5,121.5C 197.658,112.343 197.824,103.009 197,93.5C 196.768,92.2625 196.268,91.2625 195.5,90.5C 195.196,87.4781 194.696,84.4781 194,81.5C 190.739,77.988 190.239,74.3214 192.5,70.5C 193.167,70.5 193.833,70.5 194.5,70.5C 197.407,70.4248 200.073,69.5914 202.5,68C 204.063,67.2411 205.063,66.0744 205.5,64.5C 208.843,63.941 211.843,62.6077 214.5,60.5C 216.674,62.5266 217.008,64.8599 215.5,67.5C 217.783,67.6079 219.783,68.4412 221.5,70C 220.584,70.3742 219.75,70.8742 219,71.5C 218.261,70.4258 217.261,69.7591 216,69.5C 214.296,69.974 212.462,70.1407 210.5,70C 211.167,70.3333 211.833,70.6667 212.5,71C 210.042,72.7331 210.375,73.8998 213.5,74.5 Z"/></g>
<g><path style="opacity:1" fill="#6c6c6c" d="M 205.5,78.5 C 203.615,80.0532 202.615,82.0532 202.5,84.5C 200.809,81.3362 201.809,79.3362 205.5,78.5 Z"/></g>
<g><path style="opacity:1" fill="#575757" d="M 213.5,74.5 C 213.5,74.8333 213.5,75.1667 213.5,75.5C 210.447,75.5721 207.781,76.5721 205.5,78.5C 207.073,75.1069 209.74,73.7736 213.5,74.5 Z"/></g>
<g><path style="opacity:1" fill="#0b0b0b" d="M 213.5,75.5 C 216.136,78.3098 218.636,81.3098 221,84.5C 222.202,86.6775 222.702,89.0108 222.5,91.5C 218.884,92.3143 215.551,93.6477 212.5,95.5C 209.888,96.3705 207.221,97.0372 204.5,97.5C 204.665,93.8183 204.499,90.1516 204,86.5C 203.722,85.5842 203.222,84.9175 202.5,84.5C 202.615,82.0532 203.615,80.0532 205.5,78.5C 207.781,76.5721 210.447,75.5721 213.5,75.5 Z"/></g>
<g><path style="opacity:1" fill="#3c3c3c" d="M 202.5,84.5 C 203.222,84.9175 203.722,85.5842 204,86.5C 204.499,90.1516 204.665,93.8183 204.5,97.5C 207.221,97.0372 209.888,96.3705 212.5,95.5C 210.967,97.2451 208.967,98.2451 206.5,98.5C 205.5,98.5 204.5,98.5 203.5,98.5C 203.813,94.9581 203.479,91.6248 202.5,88.5C 202.5,87.1667 202.5,85.8333 202.5,84.5 Z"/></g>
<g><path style="opacity:1" fill="#939393" d="M 202.5,88.5 C 203.479,91.6248 203.813,94.9581 203.5,98.5C 204.5,98.5 205.5,98.5 206.5,98.5C 206.167,99.1667 205.833,99.8333 205.5,100.5C 204.504,100.586 203.671,100.252 203,99.5C 202.501,95.8484 202.335,92.1817 202.5,88.5 Z"/></g>
<g><path style="opacity:1" fill="#a8a8a8" d="M 191.5,83.5 C 192.491,89.979 192.824,96.6457 192.5,103.5C 192.459,108.346 190.626,112.346 187,115.5C 186.517,116.448 186.351,117.448 186.5,118.5C 184.992,115.589 185.825,113.256 189,111.5C 189.973,109.608 190.64,107.608 191,105.5C 191.5,98.1742 191.666,90.8409 191.5,83.5 Z"/></g>
<g><path style="opacity:1" fill="#6a6b6a" d="M 230.5,96.5 C 229.492,98.5439 228.492,100.544 227.5,102.5C 227.025,99.6874 228.025,97.6874 230.5,96.5 Z"/></g>
<g><path style="opacity:1" fill="#f2f2f2" d="M 161.5,94.5 C 158.482,94.3354 155.482,94.502 152.5,95C 152,95.5 151.5,96 151,96.5C 150.188,100.689 150.355,104.689 151.5,108.5C 155.298,109.483 159.298,109.817 163.5,109.5C 163.5,111.5 163.5,113.5 163.5,115.5C 158.833,116.167 154.167,116.833 149.5,117.5C 149.167,117.5 148.833,117.5 148.5,117.5C 147.521,120.625 147.187,123.958 147.5,127.5C 152.167,127.5 156.833,127.5 161.5,127.5C 161.5,130.167 161.5,132.833 161.5,135.5C 153.5,135.5 145.5,135.5 137.5,135.5C 137.5,133.833 137.5,132.167 137.5,130.5C 137.5,130.167 137.5,129.833 137.5,129.5C 139.786,121.445 141.119,113.112 141.5,104.5C 141.334,99.1563 141.501,93.8229 142,88.5C 142.833,87.6667 143.667,86.8333 144.5,86C 150.167,85.3333 155.833,85.3333 161.5,86C 164.145,88.9495 164.145,91.7829 161.5,94.5 Z"/></g>
<g><path style="opacity:1" fill="#717171" d="M 131.5,100.5 C 131.573,102.027 130.906,103.027 129.5,103.5C 129.427,101.973 130.094,100.973 131.5,100.5 Z"/></g>
<g><path style="opacity:1" fill="#eeeeee" d="M 172.5,72.5 C 178.363,71.7573 183.696,72.7573 188.5,75.5C 189.5,78.1667 190.5,80.8333 191.5,83.5C 191.666,90.8409 191.5,98.1742 191,105.5C 190.64,107.608 189.973,109.608 189,111.5C 185.825,113.256 184.992,115.589 186.5,118.5C 187.488,122.485 188.488,126.485 189.5,130.5C 190.219,132.764 190.552,135.097 190.5,137.5C 187.833,137.5 185.167,137.5 182.5,137.5C 180.899,134.45 179.899,131.116 179.5,127.5C 179.628,125.345 179.128,123.345 178,121.5C 177.333,120.167 176.667,120.167 176,121.5C 175.501,126.489 175.334,131.489 175.5,136.5C 172.833,136.5 170.167,136.5 167.5,136.5C 166.518,133.038 166.185,129.371 166.5,125.5C 167.36,121.566 167.693,117.566 167.5,113.5C 168.126,107.134 168.793,100.801 169.5,94.5C 170.328,88.0126 170.828,81.346 171,74.5C 171.717,73.9558 172.217,73.2891 172.5,72.5 Z"/></g>
<g><path style="opacity:1" fill="#0b0b0b" d="M 184.5,100.5 C 183.167,102.167 181.833,103.833 180.5,105.5C 179.5,105.5 178.5,105.5 177.5,105.5C 177.623,99.7622 178.29,94.0955 179.5,88.5C 180.822,88.33 181.989,88.6634 183,89.5C 184.237,93.0601 184.737,96.7267 184.5,100.5 Z"/></g>
<g><path style="opacity:1" fill="#4f4f4f" d="M 184.5,100.5 C 184.737,96.7267 184.237,93.0601 183,89.5C 181.989,88.6634 180.822,88.33 179.5,88.5C 178.29,94.0955 177.623,99.7622 177.5,105.5C 178.5,105.5 179.5,105.5 180.5,105.5C 179.432,106.434 178.099,106.768 176.5,106.5C 176.037,99.7156 177.037,93.2156 179.5,87C 182.298,86.4392 184.131,87.6059 185,90.5C 185.808,94.0267 185.641,97.3601 184.5,100.5 Z"/></g>
<g><path style="opacity:1" fill="#717171" d="M 89.5,98.5 C 90.2216,98.9175 90.7216,99.5842 91,100.5C 92.3655,109.265 91.1988,117.598 87.5,125.5C 87.0431,126.298 86.3764,126.631 85.5,126.5C 90.2407,117.722 91.574,108.389 89.5,98.5 Z"/></g>
<g><path style="opacity:1" fill="#dcdcdc" d="M 115.5,81.5 C 121.852,84.427 128.019,87.7604 134,91.5C 134.167,92.1667 134.333,92.8333 134.5,93.5C 132.967,95.6268 131.967,97.9601 131.5,100.5C 130.094,100.973 129.427,101.973 129.5,103.5C 128.833,105.167 128.167,106.833 127.5,108.5C 125.025,109.687 124.025,111.687 124.5,114.5C 122.992,116.181 121.992,118.181 121.5,120.5C 120.566,121.568 120.232,122.901 120.5,124.5C 119.691,122.708 119.191,120.708 119,118.5C 117.334,119.34 117.167,118.84 118.5,117C 115.184,115.749 114.85,114.082 117.5,112C 117,111.5 116.5,111 116,110.5C 114.729,111.883 113.229,112.883 111.5,113.5C 112.196,108.816 114.196,104.816 117.5,101.5C 116.69,104.065 116.357,106.565 116.5,109C 118.158,110.663 120.158,111.496 122.5,111.5C 122.43,107.628 124.263,105.295 128,104.5C 127.979,100.991 128.812,97.8245 130.5,95C 126.5,94 126.5,93 130.5,92C 128.236,89.9167 125.569,88.4167 122.5,87.5C 121.549,88.3256 120.549,88.4922 119.5,88C 117.277,86.3888 115.944,84.2222 115.5,81.5 Z"/></g>
<g><path style="opacity:1" fill="#919191" d="M 161.5,94.5 C 161.5,94.8333 161.5,95.1667 161.5,95.5C 158.813,95.3359 156.146,95.5026 153.5,96C 152.944,96.3826 152.611,96.8826 152.5,97.5C 151.518,100.962 151.185,104.629 151.5,108.5C 150.355,104.689 150.188,100.689 151,96.5C 151.5,96 152,95.5 152.5,95C 155.482,94.502 158.482,94.3354 161.5,94.5 Z"/></g>
<g><path style="opacity:1" fill="#c2c2c2" d="M 195.5,90.5 C 196.268,91.2625 196.768,92.2625 197,93.5C 197.824,103.009 197.658,112.343 196.5,121.5C 196.733,111.135 196.4,100.802 195.5,90.5 Z"/></g>
<g><path style="opacity:1" fill="#101010" d="M 219.5,120.5 C 219.67,121.822 219.337,122.989 218.5,124C 215.746,124.272 213.079,124.772 210.5,125.5C 208.5,125.5 206.5,125.5 204.5,125.5C 204.211,119.409 204.545,113.409 205.5,107.5C 208.397,106.871 211.064,105.871 213.5,104.5C 214.209,103.596 215.209,103.263 216.5,103.5C 216.334,107.846 216.501,112.179 217,116.5C 217.608,118.066 218.442,119.4 219.5,120.5 Z"/></g>
<g><path style="opacity:1" fill="#888888" d="M 98.5,96.5 C 101.588,100.328 102.922,104.828 102.5,110C 102.467,112.61 101.8,114.777 100.5,116.5C 100.871,109.681 100.205,103.014 98.5,96.5 Z"/></g>
<g><path style="opacity:1" fill="#7e7e7e" d="M 213.5,104.5 C 211.064,105.871 208.397,106.871 205.5,107.5C 205.973,106.094 206.973,105.427 208.5,105.5C 210.042,104.699 211.708,104.366 213.5,104.5 Z"/></g>
<g><path style="opacity:1" fill="#383838" d="M 152.5,97.5 C 152.5,100.833 152.5,104.167 152.5,107.5C 156.371,107.185 160.038,107.518 163.5,108.5C 159.5,108.5 155.5,108.5 151.5,108.5C 151.185,104.629 151.518,100.962 152.5,97.5 Z"/></g>
<g><path style="opacity:1" fill="#919191" d="M 151.5,108.5 C 155.5,108.5 159.5,108.5 163.5,108.5C 164.167,108.5 164.5,108.833 164.5,109.5C 164.795,111.735 164.461,113.735 163.5,115.5C 163.5,113.5 163.5,111.5 163.5,109.5C 159.298,109.817 155.298,109.483 151.5,108.5 Z"/></g>
<g><path style="opacity:1" fill="#444444" d="M 227.5,102.5 C 227.064,109.317 227.731,115.984 229.5,122.5C 228.883,122.389 228.383,122.056 228,121.5C 224.962,115.095 224.795,108.761 227.5,102.5 Z"/></g>
<g><path style="opacity:1" fill="#696a69" d="M 127.5,108.5 C 126.492,110.544 125.492,112.544 124.5,114.5C 124.025,111.687 125.025,109.687 127.5,108.5 Z"/></g>
<g><path style="opacity:1" fill="#7b7b7b" d="M 205.5,107.5 C 204.545,113.409 204.211,119.409 204.5,125.5C 206.5,125.5 208.5,125.5 210.5,125.5C 208.393,126.468 206.059,126.802 203.5,126.5C 202.877,119.745 203.544,113.412 205.5,107.5 Z"/></g>
<g><path style="opacity:1" fill="#b7b7b7" d="M 140.5,104.5 C 140.833,104.5 141.167,104.5 141.5,104.5C 141.119,113.112 139.786,121.445 137.5,129.5C 138.335,121.157 139.335,112.823 140.5,104.5 Z"/></g>
<g><path style="opacity:1" fill="#ededed" d="M 120.5,124.5 C 123.641,125.321 126.975,125.821 130.5,126C 131.423,128.041 131.756,130.208 131.5,132.5C 131.167,133.5 130.5,134.167 129.5,134.5C 119.828,134.666 110.161,134.5 100.5,134C 99.6634,132.989 99.33,131.822 99.5,130.5C 102.736,124.387 106.736,118.72 111.5,113.5C 113.229,112.883 114.729,111.883 116,110.5C 116.5,111 117,111.5 117.5,112C 114.85,114.082 115.184,115.749 118.5,117C 117.167,118.84 117.334,119.34 119,118.5C 119.191,120.708 119.691,122.708 120.5,124.5 Z"/></g>
<g><path style="opacity:1" fill="#2f2f2f" d="M 164.5,109.5 C 165.302,110.952 165.802,112.618 166,114.5C 166.383,113.944 166.883,113.611 167.5,113.5C 167.693,117.566 167.36,121.566 166.5,125.5C 166.167,125.5 165.833,125.5 165.5,125.5C 165.665,122.482 165.498,119.482 165,116.5C 159.928,117.471 154.762,117.805 149.5,117.5C 154.167,116.833 158.833,116.167 163.5,115.5C 164.461,113.735 164.795,111.735 164.5,109.5 Z"/></g>
<g><path style="opacity:1" fill="#070707" d="M 165.5,125.5 C 165.528,130.565 164.528,131.231 162.5,127.5C 162.5,126.833 162.167,126.5 161.5,126.5C 157.702,125.517 153.702,125.183 149.5,125.5C 149.5,122.833 149.5,120.167 149.5,117.5C 154.762,117.805 159.928,117.471 165,116.5C 165.498,119.482 165.665,122.482 165.5,125.5 Z"/></g>
<g><path style="opacity:0.263" fill="#696969" d="M 6.5,112.5 C 6.59047,115.152 5.92381,117.485 4.5,119.5C 4.40953,116.848 5.07619,114.515 6.5,112.5 Z"/></g>
<g><path style="opacity:1" fill="#555555" d="M 121.5,120.5 C 121.5,121.5 121.5,122.5 121.5,123.5C 124.713,123.19 127.713,123.523 130.5,124.5C 127.167,124.5 123.833,124.5 120.5,124.5C 120.232,122.901 120.566,121.568 121.5,120.5 Z"/></g>
<g><path style="opacity:1" fill="#737373" d="M 229.5,122.5 C 231.797,124.294 233.963,126.294 236,128.5C 236.74,129.749 236.573,130.749 235.5,131.5C 233.5,128.5 231.5,125.5 229.5,122.5 Z"/></g>
<g><path style="opacity:1" fill="#b2b2b2" d="M 120.5,124.5 C 123.833,124.5 127.167,124.5 130.5,124.5C 132.026,125.492 132.693,126.992 132.5,129C 132.486,130.385 132.152,131.551 131.5,132.5C 131.756,130.208 131.423,128.041 130.5,126C 126.975,125.821 123.641,125.321 120.5,124.5 Z"/></g>
<g><path style="opacity:1" fill="#626262" d="M 148.5,117.5 C 148.833,117.5 149.167,117.5 149.5,117.5C 149.5,120.167 149.5,122.833 149.5,125.5C 153.702,125.183 157.702,125.517 161.5,126.5C 157.167,126.5 152.833,126.5 148.5,126.5C 148.5,123.5 148.5,120.5 148.5,117.5 Z"/></g>
<g><path style="opacity:1" fill="#b4b4b4" d="M 148.5,117.5 C 148.5,120.5 148.5,123.5 148.5,126.5C 152.833,126.5 157.167,126.5 161.5,126.5C 162.167,126.5 162.5,126.833 162.5,127.5C 162.5,130.167 162.5,132.833 162.5,135.5C 162.082,136.222 161.416,136.722 160.5,137C 152.507,137.5 144.507,137.666 136.5,137.5C 136.198,134.941 136.532,132.607 137.5,130.5C 137.5,132.167 137.5,133.833 137.5,135.5C 145.5,135.5 153.5,135.5 161.5,135.5C 161.5,132.833 161.5,130.167 161.5,127.5C 156.833,127.5 152.167,127.5 147.5,127.5C 147.187,123.958 147.521,120.625 148.5,117.5 Z"/></g>
<g><path style="opacity:1" fill="#8d8d8d" d="M 179.5,127.5 C 178.685,126.571 177.852,125.571 177,124.5C 176.825,129.019 176.325,133.353 175.5,137.5C 172.615,137.806 169.948,137.473 167.5,136.5C 170.167,136.5 172.833,136.5 175.5,136.5C 175.334,131.489 175.501,126.489 176,121.5C 176.667,120.167 177.333,120.167 178,121.5C 179.128,123.345 179.628,125.345 179.5,127.5 Z"/></g>
<g><path style="opacity:1" fill="#a7a7a7" d="M 85.5,126.5 C 84.6295,129.112 83.9628,131.779 83.5,134.5C 85.1667,134.5 86.8333,134.5 88.5,134.5C 88.5,134.833 88.5,135.167 88.5,135.5C 78.9784,135.604 77.9784,132.604 85.5,126.5 Z"/></g>
<g><path style="opacity:1" fill="#686868" d="M 230.5,132.5 C 226.809,133.393 223.142,134.393 219.5,135.5C 216.833,135.5 214.167,135.5 211.5,135.5C 217.556,133.547 223.889,132.547 230.5,132.5 Z"/></g>
<g><path style="opacity:1" fill="#2e2e2e" d="M 230.5,132.5 C 232.167,132.5 233.833,132.5 235.5,132.5C 235.557,133.609 235.89,134.609 236.5,135.5C 232.486,135.334 228.486,135.501 224.5,136C 223.915,137.302 223.249,138.469 222.5,139.5C 222.5,138.167 222.5,136.833 222.5,135.5C 221.5,135.5 220.5,135.5 219.5,135.5C 223.142,134.393 226.809,133.393 230.5,132.5 Z"/></g>
<g><path style="opacity:1" fill="#424242" d="M 99.5,130.5 C 99.33,131.822 99.6634,132.989 100.5,134C 110.161,134.5 119.828,134.666 129.5,134.5C 119.675,135.658 109.675,135.825 99.5,135C 98.1991,133.384 98.1991,131.884 99.5,130.5 Z"/></g>
<g><path style="opacity:1" fill="#dddddd" d="M 236.5,135.5 C 235.833,139.167 235.167,142.833 234.5,146.5C 231.463,155.231 227.463,163.564 222.5,171.5C 222.833,169.5 223.167,167.5 223.5,165.5C 222.022,165.762 220.689,165.429 219.5,164.5C 220.325,163.614 221.325,163.281 222.5,163.5C 222.227,161.549 222.893,160.049 224.5,159C 223.643,158.311 222.977,157.478 222.5,156.5C 225.735,156.607 228.569,155.273 231,152.5C 231.814,150.098 231.647,147.765 230.5,145.5C 229.38,144.167 228.047,143.667 226.5,144C 226.032,145.986 226.032,147.819 226.5,149.5C 224.803,148.636 223.637,147.303 223,145.5C 222.111,148.095 220.611,150.095 218.5,151.5C 219.39,147.305 220.723,143.305 222.5,139.5C 223.249,138.469 223.915,137.302 224.5,136C 228.486,135.501 232.486,135.334 236.5,135.5 Z"/></g>
<g><path style="opacity:1" fill="#585858" d="M 165.5,125.5 C 165.833,125.5 166.167,125.5 166.5,125.5C 166.185,129.371 166.518,133.038 167.5,136.5C 169.948,137.473 172.615,137.806 175.5,137.5C 172.696,138.638 169.696,138.805 166.5,138C 165.529,136.519 164.196,135.685 162.5,135.5C 162.5,132.833 162.5,130.167 162.5,127.5C 164.528,131.231 165.528,130.565 165.5,125.5 Z"/></g>
<g><path style="opacity:1" fill="#797979" d="M 189.5,130.5 C 190.117,130.611 190.617,130.944 191,131.5C 191.497,133.81 191.663,136.143 191.5,138.5C 188.287,138.81 185.287,138.477 182.5,137.5C 185.167,137.5 187.833,137.5 190.5,137.5C 190.552,135.097 190.219,132.764 189.5,130.5 Z"/></g>
<g><path style="opacity:1" fill="#666666" d="M 195.5,122.5 C 195.197,127.43 195.531,132.263 196.5,137C 201.267,137.467 205.933,136.967 210.5,135.5C 205.92,138.181 200.92,139.015 195.5,138C 194.944,137.617 194.611,137.117 194.5,136.5C 194.181,131.637 194.514,126.97 195.5,122.5 Z"/></g>
<g><path style="opacity:1" fill="#f2f2f2" d="M 168.5,141.5 C 183.167,141.5 197.833,141.5 212.5,141.5C 212.5,141.833 212.5,142.167 212.5,142.5C 212.93,145.862 211.93,148.695 209.5,151C 195.994,151.169 182.66,151.669 169.5,152.5C 169.167,152.5 168.833,152.5 168.5,152.5C 166.946,156.567 166.28,160.9 166.5,165.5C 166.5,167.833 166.5,170.167 166.5,172.5C 165.265,185.984 164.599,199.651 164.5,213.5C 163.523,216.287 163.19,219.287 163.5,222.5C 161.5,222.5 159.5,222.5 157.5,222.5C 157.833,197.824 157.5,173.158 156.5,148.5C 138.167,147.821 119.834,147.154 101.5,146.5C 100.434,144.299 99.767,141.965 99.5,139.5C 122.463,141.166 145.463,141.833 168.5,141.5 Z"/></g>
<g><path style="opacity:1" fill="#4a4a4a" d="M 236.5,135.5 C 237.558,139.371 236.891,143.037 234.5,146.5C 235.167,142.833 235.833,139.167 236.5,135.5 Z"/></g>
<g><path style="opacity:1" fill="#f4f4f4" d="M 222.5,171.5 C 222.245,174.016 221.411,176.35 220,178.5C 216.312,183.218 213.145,188.218 210.5,193.5C 208.413,194.585 207.08,196.251 206.5,198.5C 203.757,200.239 201.757,202.573 200.5,205.5C 197.167,207.159 195.5,209.825 195.5,213.5C 205.833,213.5 216.167,213.5 226.5,213.5C 226.833,214.167 227.167,214.833 227.5,215.5C 227.826,221.826 224.826,224.159 218.5,222.5C 203.483,222.237 188.483,221.571 173.5,220.5C 174.309,218.929 174.643,217.262 174.5,215.5C 176.914,214.089 178.581,212.089 179.5,209.5C 179.738,207.596 180.738,206.262 182.5,205.5C 183.708,204.766 185.041,204.433 186.5,204.5C 186.343,200.231 188.343,197.731 192.5,197C 193.5,195.333 194.833,194 196.5,193C 195.833,192.333 195.167,191.667 194.5,191C 196.352,186.217 199.352,185.384 203.5,188.5C 204.571,186.675 203.904,185.508 201.5,185C 204.396,183.07 205.396,180.57 204.5,177.5C 205.174,175.483 206.341,173.817 208,172.5C 208.49,171.207 208.657,169.873 208.5,168.5C 208.845,165.802 210.178,163.802 212.5,162.5C 215.751,159.676 217.751,156.009 218.5,151.5C 220.611,150.095 222.111,148.095 223,145.5C 223.637,147.303 224.803,148.636 226.5,149.5C 226.032,147.819 226.032,145.986 226.5,144C 228.047,143.667 229.38,144.167 230.5,145.5C 231.647,147.765 231.814,150.098 231,152.5C 228.569,155.273 225.735,156.607 222.5,156.5C 222.977,157.478 223.643,158.311 224.5,159C 222.893,160.049 222.227,161.549 222.5,163.5C 221.325,163.281 220.325,163.614 219.5,164.5C 220.689,165.429 222.022,165.762 223.5,165.5C 223.167,167.5 222.833,169.5 222.5,171.5 Z"/></g>
<g><path style="opacity:1" fill="#646464" d="M 168.5,141.5 C 145.463,141.833 122.463,141.166 99.5,139.5C 99.767,141.965 100.434,144.299 101.5,146.5C 101.5,146.833 101.5,147.167 101.5,147.5C 100.604,146.494 99.9377,146.494 99.5,147.5C 97.6736,145.853 96.3403,143.853 95.5,141.5C 97.0481,141.179 97.7148,140.179 97.5,138.5C 121.321,139.556 144.988,140.556 168.5,141.5 Z"/></g>
<g><path style="opacity:1" fill="#bcbcbc" d="M 101.5,147.5 C 101.5,147.167 101.5,146.833 101.5,146.5C 119.834,147.154 138.167,147.821 156.5,148.5C 157.5,173.158 157.833,197.824 157.5,222.5C 159.5,222.5 161.5,222.5 163.5,222.5C 163.19,219.287 163.523,216.287 164.5,213.5C 164.5,216.5 164.5,219.5 164.5,222.5C 162.583,224.745 160.25,225.078 157.5,223.5C 156.78,214.473 156.113,205.473 155.5,196.5C 155.5,180.833 155.5,165.167 155.5,149.5C 138.163,149.304 120.83,148.971 103.5,148.5C 102.833,148.167 102.167,147.833 101.5,147.5 Z"/></g>
<g><path style="opacity:1" fill="#727272" d="M 212.5,142.5 C 214.054,145.985 213.387,149.152 210.5,152C 196.837,152.5 183.171,152.667 169.5,152.5C 182.66,151.669 195.994,151.169 209.5,151C 211.93,148.695 212.93,145.862 212.5,142.5 Z"/></g>
<g><path style="opacity:1" fill="#414141" d="M 87.5,138.5 C 87.5,138.833 87.5,139.167 87.5,139.5C 86.5139,143.97 86.1805,148.637 86.5,153.5C 85.8362,151.19 85.5029,148.69 85.5,146C 85.5248,143.071 86.1914,140.571 87.5,138.5 Z"/></g>
<g><path style="opacity:1" fill="#777777" d="M 126.5,154.5 C 121.167,154.5 115.833,154.5 110.5,154.5C 110.5,158.5 110.5,162.5 110.5,166.5C 109.517,162.702 109.183,158.702 109.5,154.5C 115.167,153.167 120.833,153.167 126.5,154.5 Z"/></g>
<g><path style="opacity:1" fill="#6b6b6b" d="M 99.5,149.5 C 101.245,151.033 102.245,153.033 102.5,155.5C 100.755,153.967 99.7549,151.967 99.5,149.5 Z"/></g>
<g><path style="opacity:1" fill="#f2f2f2" d="M 126.5,154.5 C 126.5,154.833 126.5,155.167 126.5,155.5C 127.363,156.94 127.363,158.274 126.5,159.5C 125.052,160.354 123.719,161.354 122.5,162.5C 121.152,160.539 119.819,160.372 118.5,162C 119.76,164.213 120.426,166.713 120.5,169.5C 120.333,171.833 120.167,174.167 120,176.5C 119.329,175.748 118.496,175.414 117.5,175.5C 114.925,172.681 112.592,169.681 110.5,166.5C 110.5,162.5 110.5,158.5 110.5,154.5C 115.833,154.5 121.167,154.5 126.5,154.5 Z"/></g>
<g><path style="opacity:1" fill="#f7f7f7" d="M 142.5,156.5 C 144.167,156.5 145.833,156.5 147.5,156.5C 147.667,169.504 147.5,182.504 147,195.5C 145.644,196.38 144.144,196.714 142.5,196.5C 141.136,194.809 139.803,193.142 138.5,191.5C 138.443,190.391 138.11,189.391 137.5,188.5C 136.522,185.869 135.522,183.202 134.5,180.5C 136.608,179.056 138.941,178.39 141.5,178.5C 141.5,171.5 141.5,164.5 141.5,157.5C 141.5,156.833 141.833,156.5 142.5,156.5 Z"/></g>
<g><path style="opacity:1" fill="#353535" d="M 103.5,148.5 C 120.83,148.971 138.163,149.304 155.5,149.5C 155.5,165.167 155.5,180.833 155.5,196.5C 154.504,181.342 154.17,166.009 154.5,150.5C 137.311,150.655 120.311,149.988 103.5,148.5 Z"/></g>
<g><path style="opacity:1" fill="#e8e8e8" d="M 185.5,156.5 C 185.833,157.5 186.5,158.167 187.5,158.5C 188.08,160.749 189.413,162.415 191.5,163.5C 192.89,164.899 193.89,166.566 194.5,168.5C 196.428,170.781 197.428,173.447 197.5,176.5C 195.831,178.509 194.164,180.509 192.5,182.5C 190.244,181.579 189.244,179.912 189.5,177.5C 187.5,177.5 185.5,177.5 183.5,177.5C 181.284,178.203 179.451,179.536 178,181.5C 177.5,188.826 177.334,196.159 177.5,203.5C 176.075,204.922 175.075,206.589 174.5,208.5C 172.537,201.576 171.87,194.243 172.5,186.5C 172.5,185.5 172.5,184.5 172.5,183.5C 173.395,175.659 174.228,167.659 175,159.5C 177.897,156.769 181.397,155.769 185.5,156.5 Z"/></g>
<g><path style="opacity:1" fill="#585858" d="M 147.5,155.5 C 145.585,155.216 143.919,155.549 142.5,156.5C 141.833,156.5 141.5,156.833 141.5,157.5C 140.833,163.014 140.167,168.681 139.5,174.5C 137.712,173.717 136.712,172.384 136.5,170.5C 137.458,170.953 138.292,171.619 139,172.5C 139.17,166.804 139.67,161.138 140.5,155.5C 142.972,154.234 145.306,154.234 147.5,155.5 Z"/></g>
<g><path style="opacity:1" fill="#808080" d="M 187.5,158.5 C 189.587,159.585 190.92,161.251 191.5,163.5C 189.413,162.415 188.08,160.749 187.5,158.5 Z"/></g>
<g><path style="opacity:1" fill="#a1a1a1" d="M 218.5,151.5 C 217.751,156.009 215.751,159.676 212.5,162.5C 213.742,158.345 215.742,154.678 218.5,151.5 Z"/></g>
<g><path style="opacity:1" fill="#8c8c8c" d="M 168.5,152.5 C 168.844,157.122 168.177,161.455 166.5,165.5C 166.28,160.9 166.946,156.567 168.5,152.5 Z"/></g>
<g><path style="opacity:1" fill="#898989" d="M 103.5,159.5 C 104.906,159.973 105.573,160.973 105.5,162.5C 106.312,164.945 107.312,167.278 108.5,169.5C 105.711,166.844 104.044,163.511 103.5,159.5 Z"/></g>
<g><path style="opacity:1" fill="#bebebe" d="M 87.5,160.5 C 88.659,171.326 88.8257,182.326 88,193.5C 87.7216,194.416 87.2216,195.082 86.5,195.5C 87.4129,183.864 87.7463,172.197 87.5,160.5 Z"/></g>
<g><path style="opacity:1" fill="#565656" d="M 185.5,156.5 C 181.397,155.769 177.897,156.769 175,159.5C 174.228,167.659 173.395,175.659 172.5,183.5C 172.316,175.125 172.816,166.792 174,158.5C 177.453,155.396 181.287,154.73 185.5,156.5 Z"/></g>
<g><path style="opacity:1" fill="#393939" d="M 181.5,166.5 C 182.5,166.5 183.5,166.5 184.5,166.5C 184.5,168.167 184.5,169.833 184.5,171.5C 183.5,171.5 182.5,171.5 181.5,171.5C 181.5,169.833 181.5,168.167 181.5,166.5 Z"/></g>
<g><path style="opacity:1" fill="#8a8a8a" d="M 122.5,165.5 C 122.5,170.167 122.5,174.833 122.5,179.5C 121.209,179.737 120.209,179.404 119.5,178.5C 121.135,174.427 122.135,170.094 122.5,165.5 Z"/></g>
<g><path style="opacity:1" fill="#292929" d="M 109.5,154.5 C 109.183,158.702 109.517,162.702 110.5,166.5C 112.592,169.681 114.925,172.681 117.5,175.5C 118.167,176.5 118.833,177.5 119.5,178.5C 118.504,178.586 117.671,178.252 117,177.5C 116.536,178.094 116.369,178.761 116.5,179.5C 115.833,179.167 115.167,178.833 114.5,178.5C 113.241,174.975 111.241,171.975 108.5,169.5C 107.312,167.278 106.312,164.945 105.5,162.5C 106.931,162.881 107.764,163.881 108,165.5C 108.177,161.644 108.677,157.977 109.5,154.5 Z"/></g>
<g><path style="opacity:1" fill="#d8d8d8" d="M 126.5,155.5 C 131.436,159.435 134.769,164.435 136.5,170.5C 136.712,172.384 137.712,173.717 139.5,174.5C 140.167,168.681 140.833,163.014 141.5,157.5C 141.5,164.5 141.5,171.5 141.5,178.5C 138.941,178.39 136.608,179.056 134.5,180.5C 135.522,183.202 136.522,185.869 137.5,188.5C 137.167,188.5 136.833,188.5 136.5,188.5C 133.328,184.159 130.661,179.492 128.5,174.5C 128.275,171.454 126.942,169.121 124.5,167.5C 124.5,166.167 123.833,165.5 122.5,165.5C 122.135,170.094 121.135,174.427 119.5,178.5C 118.833,177.5 118.167,176.5 117.5,175.5C 118.496,175.414 119.329,175.748 120,176.5C 120.167,174.167 120.333,171.833 120.5,169.5C 120.426,166.713 119.76,164.213 118.5,162C 119.819,160.372 121.152,160.539 122.5,162.5C 123.719,161.354 125.052,160.354 126.5,159.5C 127.363,158.274 127.363,156.94 126.5,155.5 Z"/></g>
<g><path style="opacity:1" fill="#666666" d="M 124.5,167.5 C 126.942,169.121 128.275,171.454 128.5,174.5C 126.801,172.434 125.468,170.1 124.5,167.5 Z"/></g>
<g><path style="opacity:1" fill="#f9f9f9" d="M 129.5,163.5 C 133.558,165.924 135.892,169.591 136.5,174.5C 135.5,175.5 134.5,176.5 133.5,177.5C 132.302,173.497 130.302,169.997 127.5,167C 127.978,165.697 128.645,164.531 129.5,163.5 Z"/></g>
<g><path style="opacity:1" fill="#818181" d="M 194.5,168.5 C 198.244,170.299 199.244,172.966 197.5,176.5C 197.428,173.447 196.428,170.781 194.5,168.5 Z"/></g>
<g><path style="opacity:1" fill="#646464" d="M 87.5,139.5 C 87.5,146.5 87.5,153.5 87.5,160.5C 87.7463,172.197 87.4129,183.864 86.5,195.5C 86.5,196.833 86.5,198.167 86.5,199.5C 86.1667,199.5 85.8333,199.5 85.5,199.5C 86.2901,184.18 86.6234,168.847 86.5,153.5C 86.1805,148.637 86.5139,143.97 87.5,139.5 Z"/></g>
<g><path style="opacity:1" fill="#d5d4d5" d="M 208.5,168.5 C 208.657,169.873 208.49,171.207 208,172.5C 206.341,173.817 205.174,175.483 204.5,177.5C 205.396,180.57 204.396,183.07 201.5,185C 203.904,185.508 204.571,186.675 203.5,188.5C 199.352,185.384 196.352,186.217 194.5,191C 195.167,191.667 195.833,192.333 196.5,193C 194.833,194 193.5,195.333 192.5,197C 188.343,197.731 186.343,200.231 186.5,204.5C 185.041,204.433 183.708,204.766 182.5,205.5C 190.396,192.608 199.062,180.274 208.5,168.5 Z"/></g>
<g><path style="opacity:1" fill="#bdbdbd" d="M 142.5,156.5 C 143.919,155.549 145.585,155.216 147.5,155.5C 147.833,155.5 148.167,155.5 148.5,155.5C 149.15,170.538 148.483,185.205 146.5,199.5C 144.77,198.974 143.436,197.974 142.5,196.5C 144.144,196.714 145.644,196.38 147,195.5C 147.5,182.504 147.667,169.504 147.5,156.5C 145.833,156.5 144.167,156.5 142.5,156.5 Z"/></g>
<g><path style="opacity:1" fill="#8f8f8f" d="M 114.5,178.5 C 115.167,178.833 115.833,179.167 116.5,179.5C 117.6,180.605 118.267,181.938 118.5,183.5C 116.413,182.415 115.08,180.749 114.5,178.5 Z"/></g>
<g><path style="opacity:1" fill="#858585" d="M 118.5,183.5 C 120.914,184.911 122.581,186.911 123.5,189.5C 121.086,188.089 119.419,186.089 118.5,183.5 Z"/></g>
<g><path style="opacity:1" fill="#a6a6a6" d="M 183.5,177.5 C 181.404,179.433 179.904,181.767 179,184.5C 178.828,191.013 178.328,197.347 177.5,203.5C 177.334,196.159 177.5,188.826 178,181.5C 179.451,179.536 181.284,178.203 183.5,177.5 Z"/></g>
<g><path style="opacity:1" fill="#888888" d="M 123.5,189.5 C 125.587,190.585 126.92,192.251 127.5,194.5C 125.413,193.415 124.08,191.749 123.5,189.5 Z"/></g>
<g><path style="opacity:1" fill="#6f6f6f" d="M 136.5,188.5 C 136.833,188.5 137.167,188.5 137.5,188.5C 138.11,189.391 138.443,190.391 138.5,191.5C 137.094,191.027 136.427,190.027 136.5,188.5 Z"/></g>
<g><path style="opacity:1" fill="#f1f1f1" d="M 88.5,137.5 C 92.2221,136.68 94.5554,138.013 95.5,141.5C 96.3403,143.853 97.6736,145.853 99.5,147.5C 99.5,148.167 99.5,148.833 99.5,149.5C 99.7549,151.967 100.755,153.967 102.5,155.5C 102.833,156.833 103.167,158.167 103.5,159.5C 104.044,163.511 105.711,166.844 108.5,169.5C 111.241,171.975 113.241,174.975 114.5,178.5C 115.08,180.749 116.413,182.415 118.5,183.5C 119.419,186.089 121.086,188.089 123.5,189.5C 124.08,191.749 125.413,193.415 127.5,194.5C 132.167,198.833 136.833,203.167 141.5,207.5C 142.911,209.914 144.911,211.581 147.5,212.5C 148.167,213.5 148.833,214.5 149.5,215.5C 149.799,217.604 149.466,219.604 148.5,221.5C 145.312,220.87 142.312,219.87 139.5,218.5C 134.11,212.108 128.11,206.441 121.5,201.5C 119.139,199.806 117.139,197.806 115.5,195.5C 114.581,192.911 112.914,190.911 110.5,189.5C 106.164,182.825 101.83,176.158 97.5,169.5C 97.5,167.5 96.5,166.5 94.5,166.5C 93.5088,173.313 93.1755,180.313 93.5,187.5C 98.7275,186.444 102.061,188.444 103.5,193.5C 99.3525,194.167 95.3525,194.834 91.5,195.5C 91.5,195.833 91.5,196.167 91.5,196.5C 89.6101,199.138 88.2768,202.138 87.5,205.5C 86.5344,203.604 86.2011,201.604 86.5,199.5C 86.5,198.167 86.5,196.833 86.5,195.5C 87.2216,195.082 87.7216,194.416 88,193.5C 88.8257,182.326 88.659,171.326 87.5,160.5C 87.5,153.5 87.5,146.5 87.5,139.5C 87.5,139.167 87.5,138.833 87.5,138.5C 87.5,137.833 87.8333,137.5 88.5,137.5 Z"/></g>
<g><path style="opacity:1" fill="#616161" d="M 110.5,189.5 C 112.914,190.911 114.581,192.911 115.5,195.5C 113.086,194.089 111.419,192.089 110.5,189.5 Z"/></g>
<g><path style="opacity:1" fill="#7b7b7b" d="M 94.5,166.5 C 96.5,166.5 97.5,167.5 97.5,169.5C 96.8826,169.389 96.3826,169.056 96,168.5C 95.5006,174.157 95.3339,179.824 95.5,185.5C 97.4147,185.216 99.0813,185.549 100.5,186.5C 98.5,186.5 96.5,186.5 94.5,186.5C 94.5,179.833 94.5,173.167 94.5,166.5 Z"/></g>
<g><path style="opacity:1" fill="#c1c1c1" d="M 94.5,166.5 C 94.5,173.167 94.5,179.833 94.5,186.5C 96.5,186.5 98.5,186.5 100.5,186.5C 102.01,188.322 103.343,190.322 104.5,192.5C 104.5,193.5 104.5,194.5 104.5,195.5C 100.167,195.5 95.8333,195.5 91.5,195.5C 95.3525,194.834 99.3525,194.167 103.5,193.5C 102.061,188.444 98.7275,186.444 93.5,187.5C 93.1755,180.313 93.5088,173.313 94.5,166.5 Z"/></g>
<g><path style="opacity:1" fill="#696969" d="M 104.5,192.5 C 105.434,193.568 105.768,194.901 105.5,196.5C 100.833,196.5 96.1667,196.5 91.5,196.5C 91.5,196.167 91.5,195.833 91.5,195.5C 95.8333,195.5 100.167,195.5 104.5,195.5C 104.5,194.5 104.5,193.5 104.5,192.5 Z"/></g>
<g><path style="opacity:1" fill="#505050" d="M 148.5,155.5 C 149.661,170.328 149.828,185.328 149,200.5C 147.539,201.883 146.706,201.549 146.5,199.5C 148.483,185.205 149.15,170.538 148.5,155.5 Z"/></g>
<g><path style="opacity:1" fill="#5c5c5c" d="M 210.5,193.5 C 209.92,195.749 208.587,197.415 206.5,198.5C 207.08,196.251 208.413,194.585 210.5,193.5 Z"/></g>
<g><path style="opacity:1" fill="#888888" d="M 172.5,186.5 C 171.87,194.243 172.537,201.576 174.5,208.5C 174.189,209.478 173.522,210.145 172.5,210.5C 171.18,202.343 171.18,194.343 172.5,186.5 Z"/></g>
<g><path style="opacity:1" fill="#888888" d="M 166.5,172.5 C 166.395,189.346 165.728,206.013 164.5,222.5C 164.5,219.5 164.5,216.5 164.5,213.5C 164.599,199.651 165.265,185.984 166.5,172.5 Z"/></g>
<g><path style="opacity:1" fill="#a6a6a6" d="M 121.5,201.5 C 128.11,206.441 134.11,212.108 139.5,218.5C 132.89,213.559 126.89,207.892 121.5,201.5 Z"/></g>
<g><path style="opacity:1" fill="#606060" d="M 206.5,198.5 C 205.243,201.427 203.243,203.761 200.5,205.5C 201.757,202.573 203.757,200.239 206.5,198.5 Z"/></g>
<g><path style="opacity:1" fill="#646464" d="M 85.5,199.5 C 85.3104,202.855 84.3104,205.855 82.5,208.5C 82.5275,205.084 83.5275,202.084 85.5,199.5 Z"/></g>
<g><path style="opacity:1" fill="#545454" d="M 141.5,207.5 C 144.089,208.419 146.089,210.086 147.5,212.5C 144.911,211.581 142.911,209.914 141.5,207.5 Z"/></g>
<g><path style="opacity:1" fill="#424242" d="M 91.5,200.5 C 90.5981,209.039 88.7648,217.372 86,225.5C 85.5831,226.756 84.7498,227.423 83.5,227.5C 86.6086,218.519 89.2753,209.519 91.5,200.5 Z"/></g>
<g><path style="opacity:1" fill="#858585" d="M 179.5,209.5 C 178.581,212.089 176.914,214.089 174.5,215.5C 175.419,212.911 177.086,210.911 179.5,209.5 Z"/></g>
<g><path style="opacity:1" fill="#5a5a5a" d="M 200.5,205.5 C 199.611,207.736 198.278,209.736 196.5,211.5C 206.659,212.167 216.659,212.833 226.5,213.5C 216.167,213.5 205.833,213.5 195.5,213.5C 195.5,209.825 197.167,207.159 200.5,205.5 Z"/></g>
<g><path style="opacity:1" fill="#dcdbdc" d="M 91.5,196.5 C 91.5,197.833 91.5,199.167 91.5,200.5C 89.2753,209.519 86.6086,218.519 83.5,227.5C 80.1779,227.511 78.5112,225.845 78.5,222.5C 79.6351,217.763 80.9684,213.096 82.5,208.5C 84.3104,205.855 85.3104,202.855 85.5,199.5C 85.8333,199.5 86.1667,199.5 86.5,199.5C 86.2011,201.604 86.5344,203.604 87.5,205.5C 88.2768,202.138 89.6101,199.138 91.5,196.5 Z"/></g>
<g><path style="opacity:1" fill="#afafaf" d="M 149.5,215.5 C 150.88,215.962 151.547,216.962 151.5,218.5C 151.154,219.849 150.821,221.183 150.5,222.5C 148.097,222.552 145.764,222.219 143.5,221.5C 141.596,221.262 140.262,220.262 139.5,218.5C 142.312,219.87 145.312,220.87 148.5,221.5C 149.466,219.604 149.799,217.604 149.5,215.5 Z"/></g>
<g><path style="opacity:1" fill="#aeaeae" d="M 174.5,215.5 C 174.643,217.262 174.309,218.929 173.5,220.5C 188.483,221.571 203.483,222.237 218.5,222.5C 218.5,222.833 218.5,223.167 218.5,223.5C 202.828,223.381 187.161,223.047 171.5,222.5C 171.166,219.509 172.166,217.176 174.5,215.5 Z"/></g>
<g><path style="opacity:1" fill="#515151" d="M 143.5,221.5 C 145.764,222.219 148.097,222.552 150.5,222.5C 149.726,223.147 148.726,223.48 147.5,223.5C 145.645,223.66 144.312,222.993 143.5,221.5 Z"/></g>
<g><path style="opacity:1" fill="#595959" d="M 227.5,215.5 C 228.979,218.143 228.646,220.643 226.5,223C 223.854,223.497 221.187,223.664 218.5,223.5C 218.5,223.167 218.5,222.833 218.5,222.5C 224.826,224.159 227.826,221.826 227.5,215.5 Z"/></g>
<g><path style="opacity:1" fill="#838383" d="M 159.5,230.5 C 158.167,230.5 157.5,229.833 157.5,228.5C 158.386,227.224 159.386,227.224 160.5,228.5C 160.137,229.183 159.804,229.85 159.5,230.5 Z"/></g>
<g><path style="opacity:0.522" fill="#6f6f6f" d="M 17.5,234.5 C 19.0481,234.821 19.7148,235.821 19.5,237.5C 18.5987,236.71 17.9321,235.71 17.5,234.5 Z"/></g>
<g><path style="opacity:1" fill="#6d6d6d" d="M 104.5,239.5 C 105.988,241.845 107.988,242.179 110.5,240.5C 109.781,242.764 109.448,245.097 109.5,247.5C 108.778,247.082 108.278,246.416 108,245.5C 107.066,246.858 106.232,248.192 105.5,249.5C 105.247,247.173 105.914,245.173 107.5,243.5C 105.604,242.534 103.604,242.201 101.5,242.5C 101.737,243.791 101.404,244.791 100.5,245.5C 100.851,243.131 101.018,240.797 101,238.5C 100.617,239.056 100.117,239.389 99.5,239.5C 99.7118,237.616 100.712,236.283 102.5,235.5C 103.59,236.391 103.59,237.391 102.5,238.5C 102.957,239.298 103.624,239.631 104.5,239.5 Z"/></g>
<g><path style="opacity:1" fill="#4d4d4d" d="M 157.5,228.5 C 157.5,229.833 158.167,230.5 159.5,230.5C 164.167,231.167 168.833,231.833 173.5,232.5C 169.833,232.5 166.167,232.5 162.5,232.5C 162.5,233.5 162.5,234.5 162.5,235.5C 164.604,235.201 166.604,235.534 168.5,236.5C 167.162,238.275 165.829,239.941 164.5,241.5C 166.109,238.274 165.109,236.774 161.5,237C 160.186,239.605 160.186,242.105 161.5,244.5C 161.5,244.833 161.5,245.167 161.5,245.5C 160.596,246.209 160.263,247.209 160.5,248.5C 159.833,248.833 159.167,249.167 158.5,249.5C 159.362,244.187 159.529,238.854 159,233.5C 157.89,231.963 156.39,231.297 154.5,231.5C 155.5,230.5 156.5,229.5 157.5,228.5 Z"/></g>
<g><path style="opacity:1" fill="#939393" d="M 105.5,238.5 C 106.158,234.323 104.492,232.823 100.5,234C 95.5712,236.762 93.5712,240.928 94.5,246.5C 93.3659,244.034 93.1993,241.367 94,238.5C 96.613,234.49 100.113,232.323 104.5,232C 106.608,234.016 106.942,236.183 105.5,238.5 Z"/></g>
<g><path style="opacity:1" fill="#494949" d="M 148.5,232.5 C 147.504,232.414 146.671,232.748 146,233.5C 145.484,236.251 144.317,238.584 142.5,240.5C 141.534,238.604 141.201,236.604 141.5,234.5C 142.268,235.263 142.768,236.263 143,237.5C 143.837,235.649 144.671,233.816 145.5,232C 146.749,231.26 147.749,231.427 148.5,232.5 Z"/></g>
<g><path style="opacity:1" fill="#101010" d="M 164.5,241.5 C 163.272,242.306 162.272,243.306 161.5,244.5C 160.186,242.105 160.186,239.605 161.5,237C 165.109,236.774 166.109,238.274 164.5,241.5 Z"/></g>
<g><path style="opacity:1" fill="#757575" d="M 187.5,236.5 C 187.719,235.325 187.386,234.325 186.5,233.5C 184.738,234.688 183.738,236.355 183.5,238.5C 181.882,241.171 181.215,244.171 181.5,247.5C 180.833,247.5 180.167,247.5 179.5,247.5C 179.464,243.547 180.131,239.714 181.5,236C 181.167,235.167 180.833,234.333 180.5,233.5C 179.675,235.36 178.675,237.026 177.5,238.5C 177.357,236.738 177.691,235.071 178.5,233.5C 181.791,233.753 185.124,233.42 188.5,232.5C 188.768,234.099 188.434,235.432 187.5,236.5 Z"/></g>
<g><path style="opacity:1" fill="#787878" d="M 214.5,238.5 C 214.785,236.712 214.452,235.045 213.5,233.5C 211.511,237.178 208.511,239.178 204.5,239.5C 204.5,237.5 204.5,235.5 204.5,233.5C 205.163,235.042 205.83,236.709 206.5,238.5C 208.5,237.167 210.167,235.5 211.5,233.5C 212.689,232.571 214.022,232.238 215.5,232.5C 215.795,234.735 215.461,236.735 214.5,238.5 Z"/></g>
<g><path style="opacity:1" fill="#cfcfcf" d="M 173.5,232.5 C 174.598,233.601 174.765,234.934 174,236.5C 171.672,237.664 169.838,239.33 168.5,241.5C 166.787,242.635 166.12,244.302 166.5,246.5C 173.134,247.767 171.467,247.433 161.5,245.5C 161.5,245.167 161.5,244.833 161.5,244.5C 162.272,243.306 163.272,242.306 164.5,241.5C 165.829,239.941 167.162,238.275 168.5,236.5C 166.604,235.534 164.604,235.201 162.5,235.5C 162.5,234.5 162.5,233.5 162.5,232.5C 166.167,232.5 169.833,232.5 173.5,232.5 Z"/></g>
<g><path style="opacity:1" fill="#1c1c1c" d="M 100.5,245.5 C 99.5,245.5 98.5,245.5 97.5,245.5C 97.6287,243.784 97.962,242.117 98.5,240.5C 98.5,239.833 98.8333,239.5 99.5,239.5C 100.117,239.389 100.617,239.056 101,238.5C 101.018,240.797 100.851,243.131 100.5,245.5 Z"/></g>
<g><path style="opacity:1" fill="#cdcccd" d="M 122.5,232.5 C 122.337,234.857 122.503,237.19 123,239.5C 124.579,240.8 125.745,240.466 126.5,238.5C 128.002,236.825 129.335,234.992 130.5,233C 131.749,232.26 132.749,232.427 133.5,233.5C 132.806,238.805 132.472,244.138 132.5,249.5C 131.167,249.5 129.833,249.5 128.5,249.5C 128.808,247.076 128.474,244.743 127.5,242.5C 126.167,243.833 124.833,245.167 123.5,246.5C 119.58,242.364 117.913,243.364 118.5,249.5C 117.041,249.567 115.708,249.234 114.5,248.5C 115.673,243.475 117.007,238.475 118.5,233.5C 119.568,232.566 120.901,232.232 122.5,232.5 Z"/></g>
<g><path style="opacity:1" fill="#636363" d="M 122.5,232.5 C 123.306,233.997 123.972,235.664 124.5,237.5C 124.957,238.298 125.624,238.631 126.5,238.5C 125.745,240.466 124.579,240.8 123,239.5C 122.503,237.19 122.337,234.857 122.5,232.5 Z"/></g>
<g><path style="opacity:1" fill="#595959" d="M 148.5,232.5 C 149.167,234.167 149.833,235.833 150.5,237.5C 148.962,241.031 147.962,244.697 147.5,248.5C 148.5,248.5 149.5,248.5 150.5,248.5C 146.947,249.955 143.447,249.622 140,247.5C 139.925,245.065 139.092,244.398 137.5,245.5C 137.281,244.325 137.614,243.325 138.5,242.5C 139.95,243.655 140.95,245.155 141.5,247C 142.448,247.483 143.448,247.649 144.5,247.5C 144.784,244.148 145.95,241.148 148,238.5C 148.495,236.527 148.662,234.527 148.5,232.5 Z"/></g>
<g><path style="opacity:1" fill="#e3e3e3" d="M 187.5,236.5 C 186.833,238.167 186.167,239.833 185.5,241.5C 184.035,243.546 184.368,245.38 186.5,247C 185.207,247.49 183.873,247.657 182.5,247.5C 182.704,244.482 183.037,241.482 183.5,238.5C 183.738,236.355 184.738,234.688 186.5,233.5C 187.386,234.325 187.719,235.325 187.5,236.5 Z"/></g>
<g><path style="opacity:1" fill="#757575" d="M 193.5,234.5 C 193.245,236.967 192.245,238.967 190.5,240.5C 190.755,238.033 191.755,236.033 193.5,234.5 Z"/></g>
<g><path style="opacity:1" fill="#d2d2d2" d="M 110.5,248.5 C 109.833,248.5 109.5,248.167 109.5,247.5C 109.448,245.097 109.781,242.764 110.5,240.5C 110.833,239.167 111.167,237.833 111.5,236.5C 112.265,235.34 113.265,234.34 114.5,233.5C 114.833,234.333 115.167,235.167 115.5,236C 114.249,239.585 113.249,243.251 112.5,247C 112.164,248.03 111.497,248.53 110.5,248.5 Z"/></g>
<g><path style="opacity:1" fill="#d1d1d1" d="M 141.5,234.5 C 141.201,236.604 141.534,238.604 142.5,240.5C 144.317,238.584 145.484,236.251 146,233.5C 146.671,232.748 147.504,232.414 148.5,232.5C 148.662,234.527 148.495,236.527 148,238.5C 145.95,241.148 144.784,244.148 144.5,247.5C 143.448,247.649 142.448,247.483 141.5,247C 140.95,245.155 139.95,243.655 138.5,242.5C 137.614,243.325 137.281,244.325 137.5,245.5C 136.596,246.209 136.263,247.209 136.5,248.5C 135.5,248.5 134.5,248.5 133.5,248.5C 133.54,245.012 134.207,241.679 135.5,238.5C 136.089,236.648 136.756,234.815 137.5,233C 139.352,232.227 140.686,232.727 141.5,234.5 Z"/></g>
<g><path style="opacity:1" fill="#d1d1d1" d="M 179.5,247.5 C 178.791,248.404 177.791,248.737 176.5,248.5C 176.5,245.833 176.5,243.167 176.5,240.5C 176.833,239.833 177.167,239.167 177.5,238.5C 178.675,237.026 179.675,235.36 180.5,233.5C 180.833,234.333 181.167,235.167 181.5,236C 180.131,239.714 179.464,243.547 179.5,247.5 Z"/></g>
<g><path style="opacity:1" fill="#d0d0d0" d="M 154.5,231.5 C 156.39,231.297 157.89,231.963 159,233.5C 159.529,238.854 159.362,244.187 158.5,249.5C 156.334,249.421 154.334,248.754 152.5,247.5C 151.584,247.543 150.917,247.876 150.5,248.5C 149.5,248.5 148.5,248.5 147.5,248.5C 147.962,244.697 148.962,241.031 150.5,237.5C 151.441,235.228 152.774,233.228 154.5,231.5 Z"/></g>
<g><path style="opacity:1" fill="#545454" d="M 154.5,237.5 C 155.649,237.791 156.316,238.624 156.5,240C 156.576,242.756 155.243,243.923 152.5,243.5C 152.604,241.297 153.27,239.297 154.5,237.5 Z"/></g>
<g><path style="opacity:1" fill="#e5e5e5" d="M 196.5,233.5 C 195.833,237.167 195.167,240.833 194.5,244.5C 193.842,245.398 193.176,246.398 192.5,247.5C 190.046,245.482 189.38,243.149 190.5,240.5C 192.245,238.967 193.245,236.967 193.5,234.5C 194.209,233.596 195.209,233.263 196.5,233.5 Z"/></g>
<g><path style="opacity:1" fill="#d8d8d8" d="M 204.5,233.5 C 204.5,235.5 204.5,237.5 204.5,239.5C 208.511,239.178 211.511,237.178 213.5,233.5C 214.452,235.045 214.785,236.712 214.5,238.5C 214.5,238.833 214.5,239.167 214.5,239.5C 213.042,242.214 212.042,245.214 211.5,248.5C 210.833,246.167 210.167,243.833 209.5,241.5C 208.478,241.855 207.811,242.522 207.5,243.5C 206.533,244.806 205.199,245.473 203.5,245.5C 203.585,244.005 202.919,243.005 201.5,242.5C 199.914,244.173 199.247,246.173 199.5,248.5C 198.5,248.5 197.5,248.5 196.5,248.5C 196.592,242.798 197.926,237.465 200.5,232.5C 202.128,231.147 203.462,231.481 204.5,233.5 Z"/></g>
<g><path style="opacity:1" fill="#6f6f6f" d="M 98.5,240.5 C 97.962,242.117 97.6287,243.784 97.5,245.5C 98.5,245.5 99.5,245.5 100.5,245.5C 99.4324,246.434 98.099,246.768 96.5,246.5C 96.0535,243.99 96.7202,241.99 98.5,240.5 Z"/></g>
<g><path style="opacity:1" fill="#565656" d="M 118.5,233.5 C 117.007,238.475 115.673,243.475 114.5,248.5C 113.039,249.686 111.705,249.686 110.5,248.5C 111.497,248.53 112.164,248.03 112.5,247C 113.249,243.251 114.249,239.585 115.5,236C 115.167,235.167 114.833,234.333 114.5,233.5C 113.265,234.34 112.265,235.34 111.5,236.5C 111.5,235.167 111.5,233.833 111.5,232.5C 113.903,232.448 116.236,232.781 118.5,233.5 Z"/></g>
<g><path style="opacity:1" fill="#606060" d="M 133.5,233.5 C 134.167,235.167 134.833,236.833 135.5,238.5C 134.207,241.679 133.54,245.012 133.5,248.5C 134.5,248.5 135.5,248.5 136.5,248.5C 136.263,247.209 136.596,246.209 137.5,245.5C 137.5,246.833 137.5,248.167 137.5,249.5C 135.833,249.5 134.167,249.5 132.5,249.5C 132.472,244.138 132.806,238.805 133.5,233.5 Z"/></g>
<g><path style="opacity:1" fill="#8d8d8d" d="M 214.5,239.5 C 213.949,242.807 213.616,246.14 213.5,249.5C 212.167,249.5 210.833,249.5 209.5,249.5C 209.975,246.918 209.308,244.918 207.5,243.5C 207.811,242.522 208.478,241.855 209.5,241.5C 210.167,243.833 210.833,246.167 211.5,248.5C 212.042,245.214 213.042,242.214 214.5,239.5 Z"/></g>
<g><path style="opacity:1" fill="#a4a4a4" d="M 183.5,238.5 C 183.037,241.482 182.704,244.482 182.5,247.5C 183.873,247.657 185.207,247.49 186.5,247C 184.368,245.38 184.035,243.546 185.5,241.5C 185.343,242.873 185.51,244.207 186,245.5C 187.517,243.76 189.017,242.094 190.5,240.5C 189.38,243.149 190.046,245.482 192.5,247.5C 193.176,246.398 193.842,245.398 194.5,244.5C 194.5,245.833 194.5,247.167 194.5,248.5C 193.5,248.5 192.5,248.5 191.5,248.5C 188.118,248.557 184.785,248.223 181.5,247.5C 181.215,244.171 181.882,241.171 183.5,238.5 Z"/></g>
<g><path style="opacity:1" fill="#9d9d9d" d="M 176.5,240.5 C 176.5,243.167 176.5,245.833 176.5,248.5C 171.136,249.787 165.802,249.787 160.5,248.5C 160.263,247.209 160.596,246.209 161.5,245.5C 171.467,247.433 173.134,247.767 166.5,246.5C 166.12,244.302 166.787,242.635 168.5,241.5C 168.461,242.583 168.127,243.583 167.5,244.5C 170.086,245.48 172.753,245.813 175.5,245.5C 175.216,243.585 175.549,241.919 176.5,240.5 Z"/></g>
<g><path style="opacity:1" fill="#cdcdcd" d="M 105.5,238.5 C 105.5,239.167 105.167,239.5 104.5,239.5C 103.624,239.631 102.957,239.298 102.5,238.5C 103.59,237.391 103.59,236.391 102.5,235.5C 100.712,236.283 99.7118,237.616 99.5,239.5C 98.8333,239.5 98.5,239.833 98.5,240.5C 96.7202,241.99 96.0535,243.99 96.5,246.5C 98.099,246.768 99.4324,246.434 100.5,245.5C 101.404,244.791 101.737,243.791 101.5,242.5C 103.604,242.201 105.604,242.534 107.5,243.5C 105.914,245.173 105.247,247.173 105.5,249.5C 104.844,250.278 104.011,250.944 103,251.5C 100.629,250.209 98.1292,249.209 95.5,248.5C 95.1373,247.817 94.8039,247.15 94.5,246.5C 93.5712,240.928 95.5712,236.762 100.5,234C 104.492,232.823 106.158,234.323 105.5,238.5 Z"/></g>
<g><path style="opacity:1" fill="#505050" d="M 200.5,232.5 C 197.926,237.465 196.592,242.798 196.5,248.5C 197.5,248.5 198.5,248.5 199.5,248.5C 199.247,246.173 199.914,244.173 201.5,242.5C 202.919,243.005 203.585,244.005 203.5,245.5C 202,247.232 200.333,248.899 198.5,250.5C 195.971,250.071 193.638,249.404 191.5,248.5C 192.5,248.5 193.5,248.5 194.5,248.5C 194.5,247.167 194.5,245.833 194.5,244.5C 195.167,240.833 195.833,237.167 196.5,233.5C 197.962,234.471 199.295,234.138 200.5,232.5 Z"/></g>
<g><path style="opacity:1" fill="#3d3d3d" d="M 139.5,253.5 C 146.863,253.169 154.197,253.503 161.5,254.5C 160.691,256.071 160.357,257.738 160.5,259.5C 153.417,258.879 146.417,258.879 139.5,259.5C 139.5,257.5 139.5,255.5 139.5,253.5 Z"/></g>
<g><path style="opacity:1" fill="#484848" d="M 164.5,253.5 C 169.511,253.334 174.511,253.501 179.5,254C 181.25,258.921 179.416,260.755 174,259.5C 171.698,259.4 169.698,258.733 168,257.5C 167.29,258.973 166.124,259.64 164.5,259.5C 164.5,257.5 164.5,255.5 164.5,253.5 Z"/></g>
<g><path style="opacity:0.424" fill="#5e5e5e" d="M 112.5,312.5 C 115.152,312.41 117.485,313.076 119.5,314.5C 116.848,314.59 114.515,313.924 112.5,312.5 Z"/></g>
</svg>
